<?xml version="1.0" encoding="utf-8"?>
<!-- Generator: Adobe Illustrator 15.0.0, SVG Export Plug-In . SVG Version: 6.00 Build 0)  -->
<!DOCTYPE svg PUBLIC "-//W3C//DTD SVG 1.1//EN" "http://www.w3.org/Graphics/SVG/1.1/DTD/svg11.dtd">
<svg version="1.1" id="Layer_1" xmlns="http://www.w3.org/2000/svg" xmlns:xlink="http://www.w3.org/1999/xlink" x="0px" y="0px" width="280" height="280" viewBox="350 214 167 167" enable-background="new 0 0 841.89 595.28" preserveAspectRatio="none">
<g>
	<radialGradient id="SVGID_1_" cx="433.0098" cy="297.4795" r="83.6221" gradientUnits="userSpaceOnUse">
		<stop  offset="0.5714" style="stop-color:#c6c6cc"/>
		<stop  offset="0.8405" style="stop-color:#f1f1f4"/>
		<stop  offset="1" style="stop-color:#eaebee"/>
	</radialGradient>
	<circle fill="url(#SVGID_1_)" cx="433.01" cy="297.479" r="83.622"/>
    <!-- development, background frame -->
	<path fill="none" stroke="#55585F" stroke-width="0.25" stroke-miterlimit="10" d="M504.857,269.01l-34.275,19.886v29.044 l-26.477,15.298v40.592c37.408-5.413,66.139-37.578,66.139-76.48C510.244,287.36,508.318,277.792,504.857,269.01"/>
    <!-- innovation, background frame -->
	<path fill="none" stroke="#55585F" stroke-width="0.25" stroke-miterlimit="10" d="M395.91,317.665v-28.929l-34.786-19.923 c-3.513,8.821-5.466,18.441-5.466,28.535c0,38.916,28.784,71.107,66.205,76.48l-0.052-41.222L395.91,317.665z"/>
    <!-- research, background frame -->
	<path fill="none" stroke="#55585F" stroke-width="0.25" stroke-miterlimit="10" d="M433.044,252.928l26.816,15.493l33.595-19.137 c-14.17-17.8-35.993-29.216-60.504-29.216c-24.603,0-46.518,11.507-60.674,29.425l33.384,19.255L433.044,252.928z"/>
</g>
<g>
     <!--<image overflow="visible" opacity="0.5" width="614" height="665" xlink:href="B31BE70.png"  transform="matrix(0.24 0 0 0.24 359.4819 217.8184)"></image>-->
	<g>
		<polygon fill="#FFFFFF" points="393.498,274.691 433.084,251.834 472.67,274.691 472.67,320.402 433.084,343.257 393.498,320.402"/>
	</g>
</g>
<g>
    <!-- development, pizza slice -->
	<path id="slice-development" fill="#68368B" d="M484.662,277.08l-24.61,14.276v20.854l-19.011,10.982v29.146c26.859-3.887,47.489-26.981,47.489-54.913 C488.53,290.255,487.146,283.385,484.662,277.08"/>
    <!-- innovation, pizza slice -->
	<path id="slice-innovation" fill="#DC301D" d="M406.437,312.014v-20.771l-24.977-14.305c-2.522,6.333-3.924,13.241-3.924,20.488 c0,27.941,20.667,51.055,47.535,54.913l-0.037-29.597L406.437,312.014z"/>
    <!-- research, pizza slice -->
	<path id="slice-research" fill="#303285" d="M433.099,265.532l19.255,11.124l24.12-13.74c-10.173-12.779-25.842-20.978-43.441-20.978 c-17.665,0-33.399,8.263-43.563,21.128l23.97,13.825L433.099,265.532z"/>
</g>
<!-- dotted circle arcs -->
<path fill="none" stroke="#55585F" stroke-linecap="round" stroke-linejoin="round" stroke-dasharray="0.02,3.0028" d="M403.931,354.025c8.686,4.457,18.533,6.975,28.967,6.975c11.976,0,23.178-3.315,32.738-9.077 M408.796,238.709 c-23.125,9.491-39.41,32.233-39.41,58.779c0,3.27,0.247,6.482,0.724,9.62 M496.311,293.906 c-1.323-23.803-15.754-44.107-36.192-53.817" />
<!-- RESEARCH title -->
<g>
    <!-- R -->
    <path fill="#55585F" d="M410.896,235.32l0.967,2.926l-0.914,0.301l-2.227-6.747l2.443-0.807c0.738-0.244,1.357-0.266,1.854-0.067
        c0.497,0.199,0.85,0.611,1.056,1.235c0.114,0.347,0.123,0.678,0.027,0.994c-0.097,0.317-0.292,0.607-0.588,0.874
        c0.41-0.002,0.741,0.105,0.993,0.322c0.251,0.217,0.442,0.524,0.574,0.924l0.21,0.635c0.069,0.21,0.155,0.392,0.256,0.542
        c0.102,0.152,0.227,0.261,0.376,0.329l0.037,0.111l-0.941,0.311c-0.155-0.065-0.284-0.194-0.385-0.387
        c-0.101-0.193-0.188-0.397-0.26-0.614l-0.203-0.617c-0.12-0.365-0.324-0.623-0.61-0.775c-0.287-0.152-0.609-0.169-0.969-0.051
        L410.896,235.32z M410.66,234.601l1.438-0.475c0.516-0.171,0.855-0.391,1.018-0.662c0.163-0.271,0.178-0.606,0.045-1.008
        c-0.125-0.379-0.332-0.637-0.622-0.772c-0.29-0.135-0.668-0.126-1.135,0.028l-1.53,0.505L410.66,234.601z"/>
    <!-- E -->
    <path fill="#55585F" d="M420.398,232.416l-3.177,0.72l0.562,2.476l3.662-0.83l0.167,0.738l-4.6,1.043l-1.572-6.934l4.548-1.031
        l0.167,0.738l-3.609,0.818l0.509,2.243l3.177-0.72L420.398,232.416z"/>
    <!-- S -->
    <path fill="#55585F" d="M426.179,233.1c-0.042-0.321-0.197-0.574-0.468-0.76c-0.271-0.185-0.724-0.312-1.359-0.378
        c-0.769-0.081-1.385-0.267-1.848-0.559s-0.729-0.7-0.797-1.224c-0.071-0.55,0.094-1.039,0.495-1.466
        c0.402-0.428,0.963-0.688,1.68-0.781c0.771-0.101,1.413,0.031,1.924,0.395c0.513,0.363,0.797,0.825,0.854,1.385l-0.006,0.031
        l-0.91,0.119c-0.054-0.413-0.234-0.729-0.54-0.949c-0.306-0.22-0.714-0.296-1.224-0.229c-0.475,0.062-0.825,0.216-1.051,0.464
        c-0.225,0.247-0.315,0.544-0.271,0.889c0.04,0.307,0.211,0.545,0.512,0.714c0.301,0.169,0.77,0.292,1.406,0.366
        c0.767,0.087,1.367,0.285,1.801,0.593s0.686,0.727,0.755,1.256c0.073,0.567-0.1,1.055-0.52,1.46s-1.005,0.658-1.753,0.755
        c-0.704,0.091-1.351-0.019-1.941-0.331c-0.591-0.312-0.919-0.789-0.986-1.43l0.006-0.031l0.91-0.119
        c0.059,0.452,0.271,0.774,0.634,0.967c0.362,0.192,0.789,0.256,1.28,0.192c0.481-0.062,0.849-0.213,1.104-0.452
        C426.119,233.738,426.224,233.446,426.179,233.1z"/>
    <!-- E -->
    <path fill="#55585F" d="M432.712,231.25l-3.255,0.115l0.09,2.538l3.753-0.133l0.027,0.756l-4.714,0.167l-0.253-7.105l4.66-0.165
        l0.027,0.756l-3.699,0.131l0.081,2.298l3.255-0.115L432.712,231.25z"/>
    <!-- A -->
    <path fill="#55585F" d="M438.252,232.953l-2.973-0.18l-0.783,1.786l-0.98-0.059l3.174-6.931l0.824,0.05l2.271,7.26l-0.98-0.059
        L438.252,232.953z M435.625,231.987l2.388,0.145l-0.974-3.303l-0.029-0.002L435.625,231.987z"/>
    <!-- R -->
    <path fill="#55585F" d="M442.01,232.114l-0.496,3.041L440.564,235l1.145-7.012l2.539,0.415c0.769,0.125,1.326,0.392,1.676,0.798
        s0.471,0.935,0.365,1.583c-0.059,0.36-0.204,0.658-0.436,0.895c-0.231,0.235-0.54,0.402-0.926,0.501
        c0.365,0.188,0.609,0.438,0.731,0.746c0.123,0.308,0.151,0.67,0.084,1.085l-0.108,0.66c-0.035,0.218-0.043,0.418-0.023,0.6
        c0.02,0.181,0.08,0.336,0.182,0.465l-0.02,0.115l-0.979-0.16c-0.106-0.129-0.16-0.303-0.162-0.521
        c0-0.218,0.018-0.439,0.055-0.664l0.104-0.642c0.062-0.379,0.001-0.702-0.184-0.97c-0.184-0.268-0.462-0.431-0.835-0.492
        L442.01,232.114z M442.132,231.368l1.494,0.243c0.536,0.088,0.938,0.049,1.208-0.116s0.439-0.456,0.507-0.873
        c0.064-0.394-0.001-0.719-0.195-0.973c-0.194-0.253-0.534-0.42-1.019-0.499l-1.591-0.26L442.132,231.368z"/>
    <!-- C -->
    <path fill="#55585F" d="M452.39,235.279l0.002,0.031c-0.16,0.648-0.532,1.128-1.113,1.438c-0.582,0.311-1.255,0.364-2.02,0.159
        c-0.776-0.208-1.335-0.652-1.677-1.334s-0.398-1.445-0.172-2.291l0.326-1.222c0.227-0.846,0.658-1.479,1.296-1.899
        c0.637-0.422,1.344-0.527,2.12-0.319s1.339,0.58,1.688,1.116c0.349,0.537,0.424,1.145,0.229,1.824l-0.018,0.025l-0.892-0.238
        c0.129-0.482,0.09-0.9-0.118-1.256s-0.569-0.603-1.086-0.741c-0.519-0.139-0.987-0.04-1.408,0.295
        c-0.42,0.335-0.713,0.812-0.879,1.431l-0.329,1.23c-0.168,0.625-0.154,1.188,0.043,1.688c0.196,0.501,0.553,0.82,1.072,0.959
        c0.516,0.139,0.952,0.106,1.31-0.097c0.357-0.202,0.603-0.549,0.733-1.039L452.39,235.279z"/>
    <!-- H -->
    <path fill="#55585F" d="M457.906,239.763l-0.898-0.344l1.123-2.932l-3.225-1.234l-1.123,2.932l-0.898-0.344l2.543-6.64
        l0.898,0.344l-1.149,3.001l3.224,1.234l1.148-3.001l0.898,0.344L457.906,239.763z"/>
</g>
<!-- DEVELOPMENT title -->
<g>
    <!-- D -->
    <path fill="#55585F" d="M495.919,296.107l7.108,0.117l-0.035,2.183c-0.016,0.931-0.313,1.673-0.895,2.227
        c-0.58,0.555-1.322,0.824-2.228,0.809l-0.972-0.016c-0.908-0.016-1.642-0.309-2.2-0.881c-0.559-0.573-0.83-1.324-0.814-2.255
        L495.919,296.107z M502.255,297.173l-5.595-0.092l-0.02,1.221c-0.011,0.657,0.196,1.179,0.623,1.565
        c0.426,0.387,0.977,0.586,1.653,0.597l0.98,0.017c0.67,0.011,1.224-0.17,1.663-0.543c0.438-0.371,0.664-0.887,0.675-1.543
        L502.255,297.173z"/>
    <!-- E -->
    <path fill="#55585F" d="M498.473,307.104l0.366-3.236l-2.523-0.285l-0.422,3.73l-0.752-0.085l0.53-4.687l7.064,0.799l-0.524,4.634
        l-0.752-0.085l0.416-3.678l-2.285-0.259l-0.366,3.236L498.473,307.104z"/>
    <!-- V -->
    <path fill="#55585F" d="M496.229,310.648l-0.583,0.043l-0.006,0.028l0.517,0.273l4.851,2.894l-0.214,1.019l-6.415-4.046
        l0.17-0.809l7.5-1.123l-0.214,1.021L496.229,310.648z"/>
    <!-- E -->
    <path fill="#55585F" d="M495.511,319.208l0.965-3.11l-2.426-0.752l-1.112,3.586l-0.723-0.225l1.397-4.504l6.79,2.105l-1.381,4.453
        l-0.723-0.225l1.096-3.535l-2.196-0.681l-0.965,3.11L495.511,319.208z"/>
    <!-- L -->
    <path fill="#55585F" d="M492.225,320.761l-1.269,3.115l-0.701-0.285l1.632-4.007l6.584,2.683l-0.362,0.891L492.225,320.761z"/>
    <!-- O -->
    <path fill="#55585F" d="M490.062,330.431c-0.771-0.401-1.287-0.972-1.548-1.715c-0.261-0.741-0.192-1.494,0.204-2.257
        c0.382-0.736,0.947-1.203,1.695-1.4c0.748-0.196,1.507-0.095,2.278,0.306l1.122,0.583c0.77,0.398,1.289,0.962,1.562,1.688
        c0.271,0.727,0.217,1.458-0.166,2.194c-0.396,0.763-0.974,1.251-1.731,1.464c-0.758,0.214-1.522,0.121-2.294-0.28L490.062,330.431
        z M491.637,330.164c0.578,0.3,1.132,0.39,1.664,0.27c0.532-0.119,0.934-0.442,1.207-0.969c0.258-0.496,0.279-0.989,0.063-1.478
        c-0.217-0.487-0.613-0.882-1.191-1.183l-1.131-0.587c-0.583-0.303-1.137-0.401-1.66-0.299c-0.524,0.104-0.915,0.405-1.173,0.902
        c-0.274,0.528-0.309,1.044-0.102,1.546s0.604,0.904,1.191,1.209L491.637,330.164z"/>
    <!-- P -->
    <path fill="#55585F" d="M488.627,332.536l-2.384-1.563l0.527-0.805l5.944,3.898l-1.491,2.274c-0.416,0.635-0.902,1.021-1.46,1.157
        c-0.557,0.137-1.102,0.029-1.635-0.32c-0.541-0.354-0.859-0.813-0.951-1.377c-0.092-0.562,0.069-1.16,0.485-1.795L488.627,332.536
        z M489.26,332.951l-0.964,1.47c-0.264,0.403-0.354,0.774-0.268,1.114c0.086,0.341,0.293,0.619,0.621,0.834
        c0.329,0.217,0.669,0.296,1.021,0.241c0.352-0.058,0.658-0.284,0.92-0.685l0.965-1.47L489.26,332.951z"/>
    <!-- M -->
    <path fill="#55585F" d="M487.94,340.869l-5.882-1.977l-0.02,0.023l2.971,5.447l-0.791,0.943l-5.447-4.569l0.619-0.737l2.154,1.809
        l2.152,1.932l0.019-0.016l-2.892-5.434l0.41-0.49l5.838,1.9l0.012-0.021l-2.264-1.777l-2.154-1.807l0.618-0.738l5.446,4.569
        L487.94,340.869z"/>
    <!-- E -->
    <path fill="#55585F" d="M476.93,347.113l2.362-2.242l-1.748-1.842l-2.724,2.584l-0.521-0.549l3.421-3.247l4.895,5.156l-3.382,3.21
        l-0.521-0.549l2.684-2.547l-1.584-1.668l-2.361,2.242L476.93,347.113z"/>
    <!-- N -->
    <path fill="#55585F" d="M469.334,348.963l0.762-0.589l6.071,2.253l0.017-0.025l-3.358-4.34l0.761-0.59l4.352,5.623l-0.762,0.588
        l-6.065-2.245l-0.017,0.026l3.353,4.332l-0.761,0.589L469.334,348.963z"/>
    <!-- T -->
    <path fill="#55585F" d="M467.389,357.686l1.937-1.215l-3.374-5.382l0.814-0.511l3.375,5.382l1.932-1.211l0.402,0.642l-4.684,2.936
        L467.389,357.686z"/>
</g>
<!-- INNOVATION title -->
<g>
    <!-- I -->
    <path fill="#55585F" d="M401.184,351.892l0.839,0.48l-3.53,6.171l-0.839-0.48L401.184,351.892z"/>
    <!-- N -->
    <path fill="#55585F" d="M395.281,348.115l0.796,0.541l-0.255,6.471l0.03,0.01l3.082-4.542l0.796,0.54l-3.993,5.883l-0.796-0.54
        l0.25-6.464l-0.03-0.008l-3.077,4.533l-0.796-0.541L395.281,348.115z"/>
    <!-- N -->
    <path fill="#55585F" d="M389.951,343.681l0.732,0.624l-0.964,6.404l0.029,0.012l3.562-4.175l0.731,0.624l-4.614,5.408
        l-0.731-0.623l0.958-6.397l-0.029-0.012l-3.556,4.168l-0.732-0.624L389.951,343.681z"/>
    <!-- O -->
    <path fill="#55585F" d="M383.003,340.684c0.632-0.598,1.341-0.895,2.128-0.896c0.786-0.002,1.474,0.311,2.064,0.936
        c0.569,0.604,0.825,1.291,0.764,2.062c-0.061,0.771-0.406,1.454-1.039,2.052l-0.92,0.867c-0.63,0.595-1.333,0.9-2.108,0.918
        c-0.775,0.018-1.448-0.275-2.017-0.879c-0.59-0.625-0.861-1.332-0.812-2.117c0.048-0.786,0.388-1.478,1.021-2.074L383.003,340.684
        z M382.736,342.258c-0.474,0.446-0.741,0.94-0.803,1.482c-0.062,0.541,0.11,1.027,0.517,1.459c0.384,0.407,0.842,0.59,1.374,0.546
        c0.533-0.044,1.035-0.288,1.509-0.735l0.927-0.874c0.478-0.451,0.754-0.941,0.828-1.47c0.075-0.529-0.081-0.996-0.465-1.404
        c-0.409-0.434-0.884-0.635-1.426-0.605c-0.542,0.031-1.053,0.273-1.534,0.727L382.736,342.258z"/>
    <!-- V -->
    <path fill="#55585F" d="M381.722,337.186l0.347-0.471l-0.018-0.023l-0.543,0.215l-5.353,1.803l-0.634-0.824l7.245-2.242
        l0.503,0.654l-4.023,6.429l-0.637-0.827L381.722,337.186z"/>
    <!-- A -->
    <path fill="#55585F" d="M377.306,330.891l1.587,2.521l1.909-0.405l0.523,0.83l-7.481,1.463l-0.44-0.699l4.575-6.077l0.523,0.83
        L377.306,330.891z M378.053,333.588l-1.275-2.024l-2.115,2.717l0.016,0.024L378.053,333.588z"/>
    <!-- T -->
    <path fill="#55585F" d="M369.807,326.252l1.027,2.041l5.674-2.857l0.433,0.859l-5.674,2.856l1.025,2.036l-0.676,0.341
        l-2.486-4.937L369.807,326.252z"/>
    <!-- I -->
    <path fill="#55585F" d="M374.765,321.607l0.376,0.891l-6.548,2.769l-0.377-0.891L374.765,321.607z"/>
    <!-- O -->
    <path fill="#55585F" d="M369.591,315.934c0.823-0.278,1.593-0.255,2.309,0.071c0.716,0.327,1.211,0.897,1.487,1.711
        c0.267,0.786,0.212,1.517-0.165,2.192s-0.976,1.153-1.799,1.432l-1.198,0.406c-0.82,0.278-1.586,0.264-2.298-0.043
        s-1.202-0.854-1.468-1.64c-0.276-0.813-0.229-1.568,0.143-2.263c0.372-0.695,0.969-1.182,1.792-1.461L369.591,315.934z
         M368.693,317.254c-0.617,0.209-1.065,0.547-1.347,1.014s-0.327,0.981-0.138,1.542c0.18,0.53,0.521,0.887,1.022,1.068
        c0.502,0.183,1.061,0.169,1.677-0.04l1.207-0.408c0.623-0.212,1.078-0.542,1.366-0.992c0.287-0.449,0.341-0.939,0.161-1.47
        c-0.191-0.564-0.54-0.945-1.045-1.144s-1.07-0.191-1.696,0.021L368.693,317.254z"/>
    <!-- N -->
    <path fill="#55585F" d="M370.878,308.541l0.21,0.939l-4.619,4.539l0.016,0.026l5.356-1.196l0.21,0.938l-6.938,1.55l-0.209-0.938
        l4.609-4.537l-0.016-0.026l-5.347,1.194l-0.21-0.938L370.878,308.541z"/>
</g>
</svg>
