<?xml version="1.0" encoding="utf-8"?>
<!-- Generator: Adobe Illustrator 17.0.0, SVG Export Plug-In . SVG Version: 6.00 Build 0)  -->
<!DOCTYPE svg PUBLIC "-//W3C//DTD SVG 1.1//EN" "http://www.w3.org/Graphics/SVG/1.1/DTD/svg11.dtd">
<svg version="1.1" id="abra" xmlns="http://www.w3.org/2000/svg" xmlns:xlink="http://www.w3.org/1999/xlink" x="0px"
	 y="0px" width="280px" height="280px" viewBox="0 0 280 280" enable-background="new 0 0 280 280" xml:space="preserve">
<g transform="rotate(0, 140, 140)">
    <g id="background">
        <radialGradient id="SVGID_1_" cx="145.8746" cy="133.9246" r="111.4977" gradientTransform="matrix(1.2556 0 0 1.2556 -42.6651 -28.6597)" gradientUnits="userSpaceOnUse">
            <stop  offset="0.1" style="stop-color:#666666"/>
            <stop  offset="0.65" style="stop-color:#FFFFFF"/>
            <stop  offset="0.9" style="stop-color:#FFFFFF"/>
            <stop  offset="1" style="stop-color:#E4E4E4"/>
        </radialGradient>
        <circle fill="url(#SVGID_1_)" cx="140.5" cy="139.5" r="140"/>
        <polygon fill="#FFFFFF" points="74.225,101.238 140.5,62.97 206.775,101.238 206.775,177.767 140.5,216.03 74.225,177.767"/>
    </g>
    <g id="outlines">
        <path fill="none" stroke="#55575E" stroke-width="0.4" stroke-miterlimit="10" d="M241.796,59.7
            c-23.723-29.8-60.26-48.913-101.296-48.913c-41.19,0-77.88,19.265-101.58,49.263l55.892,32.236L140.656,65.8l44.896,25.939
            L241.796,59.7z M78.485,174.183v-48.432L20.246,92.396c-5.881,14.769-9.151,30.875-9.151,47.773
            c0,65.153,48.191,119.048,110.841,128.044l-0.088-69.013L78.485,174.183z M260.886,92.725l-57.384,33.293v48.625l-44.327,25.612
            v67.959c62.629-9.063,110.73-62.913,110.73-128.044C269.905,123.447,266.681,107.428,260.886,92.725z"/>
    </g>
    <g id="slices">
        <g id="slice-research">
            <path fill="#313089" d="M140.549,86.854l32.237,18.624l40.382-23.004c-17.031-21.395-43.264-35.121-72.73-35.121
            c-29.574,0-55.917,13.833-72.934,35.372l40.13,23.146L140.549,86.854z"/>
        </g>
        <g id="slice-development">
            <path fill="#69358E" d="M226.877,106.188l-41.203,23.901v34.915l-31.828,18.387v48.797c44.968-6.507,79.507-45.172,79.507-91.935
                C233.353,128.245,231.037,116.743,226.877,106.188"/>
        </g>
        <g id="slice-innovation">
            <path fill="#DD301D" d="M95.911,164.674V129.9l-41.817-23.949c-4.222,10.603-6.569,22.168-6.569,34.301
            c0,46.779,34.601,85.476,79.583,91.935l-0.062-49.551L95.911,164.674z"/>
        </g>
    </g>
    <g id="captions">
        <g id="dotted-circle">
                <path display="inline" fill="none" stroke="#55575E" stroke-width="1.5" stroke-linecap="round" stroke-linejoin="round" stroke-dasharray="0.02,4.003" d="
                M34.846,144.269c-0.07-1.581-0.106-3.171-0.106-4.769c0-43.653,26.448-81.129,64.194-97.278"/>
                <path display="inline" fill="none" stroke="#55575E" stroke-width="1.5" stroke-linecap="round" stroke-linejoin="round" stroke-dasharray="0.02,4.003" d="
                M189.792,233.094c-14.719,7.768-31.492,12.165-49.292,12.165c-21.447,0-41.403-6.384-58.072-17.355
                c-0.084-0.055-0.168-0.111-0.252-0.167"/>
                <path display="inline" fill="none" stroke="#55575E" stroke-width="1.5" stroke-linecap="round" stroke-linejoin="round" stroke-dasharray="0.02,4.003" d="
                M183.804,42.984c35.833,16.102,61.076,51.573,62.401,93.082"/>
        </g>
        <g id="research-caption">
            <g display="inline">
                <path fill="#55575E" d="M101.138,35.518l1.734,4.859l-1.518,0.54l-3.993-11.204l4.058-1.447c1.226-0.438,2.261-0.499,3.101-0.186
                    c0.84,0.314,1.446,0.99,1.816,2.026c0.205,0.576,0.233,1.13,0.085,1.662c-0.149,0.534-0.465,1.027-0.949,1.485
                    c0.686-0.019,1.245,0.147,1.675,0.5c0.429,0.353,0.761,0.86,0.998,1.523l0.377,1.054c0.124,0.349,0.275,0.649,0.45,0.898
                    c0.176,0.25,0.39,0.428,0.642,0.535l0.066,0.185l-1.563,0.557c-0.263-0.103-0.483-0.314-0.659-0.632
                    c-0.176-0.319-0.331-0.658-0.459-1.017l-0.364-1.024c-0.216-0.606-0.567-1.03-1.052-1.274c-0.487-0.244-1.027-0.259-1.623-0.047
                    L101.138,35.518z M100.714,34.324l2.387-0.851c0.856-0.306,1.416-0.688,1.677-1.148c0.262-0.46,0.274-1.022,0.035-1.689
                    c-0.224-0.629-0.581-1.053-1.072-1.268c-0.491-0.214-1.123-0.184-1.898,0.092l-2.541,0.906L100.714,34.324z"/>
            </g>
            <g display="inline">
                <path fill="#55575E" d="M116.927,30.281l-5.288,1.331l1.038,4.122l6.097-1.534l0.309,1.229l-7.657,1.928l-2.906-11.543
                    l7.571-1.906l0.309,1.229l-6.009,1.512l0.94,3.734l5.288-1.331L116.927,30.281z"/>
            </g>
            <g display="inline">
                <path fill="#55575E" d="M126.629,31.198c-0.083-0.536-0.353-0.953-0.813-1.253c-0.46-0.299-1.223-0.493-2.29-0.58
                    c-1.29-0.105-2.328-0.392-3.115-0.863c-0.786-0.47-1.247-1.143-1.382-2.017c-0.141-0.917,0.116-1.742,0.771-2.474
                    c0.657-0.732,1.584-1.19,2.781-1.374c1.287-0.199,2.366-0.004,3.236,0.585c0.872,0.587,1.366,1.35,1.483,2.285l-0.009,0.052
                    l-1.519,0.235c-0.106-0.689-0.421-1.212-0.942-1.568c-0.52-0.356-1.206-0.467-2.057-0.336c-0.792,0.122-1.373,0.395-1.74,0.818
                    c-0.366,0.422-0.506,0.923-0.418,1.499c0.079,0.512,0.375,0.904,0.885,1.174c0.51,0.272,1.3,0.457,2.368,0.557
                    c1.287,0.116,2.3,0.422,3.038,0.921c0.738,0.499,1.176,1.19,1.313,2.073c0.145,0.947-0.125,1.769-0.812,2.465
                    c-0.687,0.696-1.656,1.141-2.904,1.334c-1.175,0.181-2.261,0.022-3.262-0.477c-1.001-0.499-1.569-1.284-1.707-2.354l0.009-0.052
                    l1.519-0.235c0.116,0.754,0.483,1.285,1.099,1.593c0.614,0.308,1.331,0.398,2.15,0.271c0.803-0.124,1.412-0.39,1.829-0.799
                    C126.554,32.269,126.718,31.776,126.629,31.198z"/>
            </g>
            <g display="inline">
                <path fill="#55575E" d="M137.491,27.844l-5.443,0.321l0.251,4.244l6.276-0.371l0.076,1.265l-7.883,0.466l-0.704-11.882
                    l7.793-0.461l0.076,1.264l-6.186,0.366l0.227,3.844l5.443-0.321L137.491,27.844z"/>
            </g>
            <g display="inline">
                <path fill="#55575E" d="M146.831,30.475l-4.983-0.183l-1.24,3.021l-1.643-0.059l5.038-11.726l1.381,0.051l4.087,12.061
                    l-1.643-0.059L146.831,30.475z M142.396,28.963l4.002,0.147l-1.76-5.489l-0.049-0.002L142.396,28.963z"/>
            </g>
            <g display="inline">
                <path fill="#55575E" d="M153.087,28.923l-0.71,5.109l-1.595-0.222l1.638-11.781l4.266,0.594c1.291,0.179,2.235,0.603,2.836,1.269
                    c0.601,0.666,0.825,1.545,0.674,2.635c-0.084,0.605-0.316,1.11-0.694,1.514c-0.378,0.403-0.888,0.695-1.53,0.875
                    c0.619,0.301,1.037,0.708,1.254,1.22c0.218,0.51,0.28,1.115,0.183,1.813l-0.155,1.109c-0.05,0.366-0.055,0.701-0.016,1.004
                    c0.04,0.302,0.147,0.559,0.323,0.771l-0.028,0.194l-1.644-0.229c-0.183-0.212-0.28-0.5-0.292-0.865
                    c-0.009-0.365,0.012-0.736,0.065-1.114l0.15-1.078c0.088-0.637-0.026-1.175-0.346-1.616c-0.318-0.44-0.79-0.702-1.417-0.791
                    L153.087,28.923z M153.262,27.669l2.511,0.348c0.901,0.126,1.573,0.045,2.017-0.242c0.445-0.287,0.717-0.781,0.814-1.481
                    c0.092-0.661-0.03-1.203-0.365-1.62c-0.335-0.416-0.911-0.682-1.724-0.795l-2.673-0.372L153.262,27.669z"/>
            </g>
            <g display="inline">
                <path fill="#55575E" d="M170.585,33.81l0.005,0.052c-0.242,1.092-0.846,1.909-1.807,2.452c-0.962,0.543-2.086,0.659-3.374,0.346
                    c-1.308-0.317-2.26-1.039-2.859-2.166c-0.599-1.127-0.724-2.403-0.378-3.828l0.498-2.058c0.346-1.424,1.043-2.501,2.094-3.23
                    c1.049-0.731,2.228-0.936,3.536-0.618c1.308,0.317,2.264,0.918,2.869,1.802c0.605,0.885,0.755,1.899,0.456,3.044l-0.028,0.043
                    l-1.502-0.364c0.197-0.813,0.115-1.511-0.247-2.097c-0.362-0.587-0.977-0.986-1.847-1.198c-0.873-0.211-1.654-0.028-2.345,0.549
                    c-0.69,0.577-1.161,1.388-1.415,2.429l-0.502,2.073c-0.256,1.053-0.211,1.994,0.139,2.824c0.348,0.831,0.958,1.351,1.833,1.563
                    c0.868,0.212,1.598,0.14,2.188-0.214c0.59-0.353,0.987-0.943,1.186-1.768L170.585,33.81z"/>
            </g>
            <g display="inline">
                <path fill="#55575E" d="M179.996,41.096l-1.517-0.54l1.764-4.951l-5.446-1.939l-1.764,4.951l-1.517-0.54l3.994-11.213l1.517,0.54
                    l-1.805,5.068l5.444,1.939l1.803-5.068l1.517,0.54L179.996,41.096z"/>
            </g>
        </g>
        <g id="development-caption">
            <g display="inline">
                <path fill="#55575E" d="M246.683,139.952l11.893,0.464l-0.141,3.652c-0.061,1.557-0.588,2.788-1.581,3.693
                    c-0.992,0.907-2.244,1.33-3.759,1.269l-1.626-0.063c-1.52-0.06-2.736-0.578-3.649-1.557c-0.913-0.98-1.339-2.248-1.278-3.806
                    L246.683,139.952z M257.248,141.976l-9.361-0.365l-0.079,2.042c-0.043,1.1,0.284,1.98,0.984,2.644
                    c0.698,0.663,1.612,1.018,2.745,1.061l1.641,0.065c1.121,0.043,2.054-0.238,2.804-0.846c0.748-0.605,1.145-1.459,1.188-2.558
                    L257.248,141.976z"/>
            </g>
            <g display="inline">
                <path fill="#55575E" d="M250.543,158.456l0.735-5.403l-4.213-0.573l-0.847,6.228l-1.255-0.171l1.064-7.824l11.794,1.604
                    l-1.053,7.736l-1.255-0.171l0.835-6.14l-3.815-0.519l-0.735,5.403L250.543,158.456z"/>
            </g>
            <g display="inline">
                <path fill="#55575E" d="M246.653,164.303l-0.977,0.05l-0.011,0.047l0.855,0.477l8.009,5.026l-0.396,1.697l-10.585-7.014
                    l0.315-1.347l12.596-1.597l-0.397,1.702L246.653,164.303z"/>
            </g>
            <g display="inline">
                <path fill="#55575E" d="M245.128,178.603l1.732-5.17l-4.032-1.35l-1.997,5.96l-1.201-0.403l2.509-7.486l11.285,3.78l-2.479,7.401
                    l-1.201-0.403l1.967-5.876l-3.65-1.222l-1.732,5.17L245.128,178.603z"/>
            </g>
            <g display="inline">
                <path fill="#55575E" d="M239.569,181.078l-2.241,5.166l-1.163-0.504l2.883-6.645l10.919,4.739l-0.64,1.477L239.569,181.078z"/>
            </g>
            <g display="inline">
                <path fill="#55575E" d="M235.586,197.181c-1.276-0.701-2.118-1.675-2.526-2.929c-0.408-1.25-0.265-2.508,0.427-3.77
                    c0.667-1.218,1.631-1.978,2.89-2.28c1.259-0.3,2.526-0.102,3.802,0.598l1.856,1.018c1.273,0.696,2.121,1.659,2.55,2.883
                    c0.427,1.226,0.308,2.449-0.361,3.666c-0.691,1.262-1.677,2.057-2.953,2.385c-1.276,0.329-2.553,0.145-3.829-0.556
                    L235.586,197.181z M238.23,196.795c0.956,0.524,1.88,0.695,2.775,0.514c0.895-0.179,1.579-0.705,2.057-1.576
                    c0.45-0.821,0.505-1.645,0.162-2.471c-0.344-0.824-0.993-1.499-1.949-2.024l-1.871-1.025c-0.964-0.529-1.887-0.715-2.767-0.563
                    c-0.882,0.155-1.547,0.644-1.997,1.466c-0.479,0.874-0.556,1.736-0.228,2.584c0.328,0.848,0.976,1.536,1.949,2.069L238.23,196.795
                    z"/>
            </g>
            <g display="inline">
                <path fill="#55575E" d="M233.103,200.651l-3.931-2.707l0.913-1.327l9.802,6.749l-2.582,3.751c-0.72,1.047-1.549,1.674-2.487,1.882
                    c-0.937,0.208-1.845,0.007-2.724-0.598c-0.892-0.614-1.408-1.394-1.54-2.341c-0.132-0.945,0.16-1.939,0.88-2.986L233.103,200.651z
                     M234.147,201.37l-1.669,2.424c-0.457,0.665-0.621,1.283-0.49,1.855c0.131,0.574,0.467,1.047,1.008,1.419
                    c0.543,0.375,1.109,0.521,1.699,0.442c0.591-0.083,1.112-0.451,1.566-1.111l1.67-2.424L234.147,201.37z"/>
            </g>
            <g display="inline">
                <path fill="#55575E" d="M231.64,214.573l-9.77-3.53l-0.034,0.038l4.767,9.23l-1.36,1.549l-8.945-7.854l1.064-1.211l3.538,3.108
                    l3.53,3.314l0.032-0.025l-4.635-9.204l0.705-0.805l9.7,3.401l0.02-0.036l-3.722-3.06l-3.538-3.105l1.063-1.212l8.943,7.854
                    L231.64,214.573z"/>
            </g>
            <g display="inline">
                <path fill="#55575E" d="M212.975,224.609l4.039-3.664l-2.856-3.149l-4.656,4.222l-0.85-0.938l5.848-5.306l7.998,8.815
                    l-5.782,5.245l-0.85-0.938l4.588-4.162l-2.588-2.852l-4.037,3.664L212.975,224.609z"/>
            </g>
            <g display="inline">
                <path fill="#55575E" d="M200.191,227.418l1.297-0.957l10.077,4l0.029-0.042l-5.457-7.391l1.296-0.958l7.071,9.576l-1.297,0.955
                    l-10.067-3.987l-0.029,0.044l5.448,7.377l-1.296,0.957L200.191,227.418z"/>
            </g>
            <g display="inline">
                <path fill="#55575E" d="M196.606,241.944l3.287-1.96l-5.444-9.135l1.382-0.824l5.446,9.135l3.279-1.954l0.649,1.089l-7.95,4.737
                    L196.606,241.944z"/>
            </g>
        </g>
        <g id="innovation-caption">
            <g display="inline">
                <path fill="#55575E" d="M78.82,225.452l1.324,0.933l-6.851,9.732l-1.324-0.933L78.82,225.452z"/>
            </g>
            <g display="inline">
                <path fill="#55575E" d="M69.573,218.231l1.242,1.027l-1.44,10.746l0.048,0.021l5.849-7.087l1.242,1.025l-7.578,9.18l-1.242-1.025
                    l1.43-10.735l-0.048-0.018l-5.839,7.074l-1.242-1.027L69.573,218.231z"/>
            </g>
            <g display="inline">
                <path fill="#55575E" d="M61.383,210.004l1.122,1.155l-2.612,10.524l0.046,0.024l6.592-6.4l1.121,1.155l-8.539,8.291l-1.122-1.153
                    l2.6-10.513l-0.046-0.024l-6.58,6.39l-1.122-1.155L61.383,210.004z"/>
            </g>
            <g display="inline">
                <path fill="#55575E" d="M50.272,203.919c1.148-0.897,2.376-1.281,3.688-1.161c1.311,0.12,2.408,0.749,3.293,1.883
                    c0.854,1.095,1.172,2.281,0.95,3.556c-0.223,1.276-0.905,2.36-2.053,3.257l-1.669,1.301c-1.144,0.893-2.363,1.292-3.658,1.2
                    c-1.294-0.092-2.37-0.686-3.224-1.781c-0.885-1.134-1.226-2.355-1.021-3.656c0.204-1.303,0.879-2.402,2.026-3.297L50.272,203.919z
                     M49.58,206.501c-0.859,0.67-1.382,1.451-1.571,2.345c-0.188,0.892,0.023,1.73,0.633,2.513c0.577,0.739,1.311,1.115,2.205,1.125
                    c0.895,0.01,1.771-0.318,2.63-0.989l1.683-1.312c0.867-0.677,1.404-1.451,1.611-2.32c0.208-0.871,0.022-1.673-0.555-2.414
                    c-0.613-0.787-1.373-1.197-2.281-1.233c-0.909-0.033-1.799,0.291-2.671,0.971L49.58,206.501z"/>
            </g>
            <g display="inline">
                <path fill="#55575E" d="M48.685,197.887l0.652-0.73l-0.026-0.042l-0.94,0.273l-9.205,2.166l-0.928-1.473l12.428-2.601l0.737,1.17
                    l-7.714,10.085l-0.932-1.479L48.685,197.887z"/>
            </g>
            <g display="inline">
                <path fill="#55575E" d="M42.312,186.702l2.25,4.45l3.246-0.376l0.742,1.465l-12.699,1.265l-0.624-1.234l8.578-9.412l0.742,1.465
                    L42.312,186.702z M43.134,191.315l-1.808-3.574l-3.951,4.197l0.022,0.043L43.134,191.315z"/>
            </g>
            <g display="inline">
                <path fill="#55575E" d="M30.539,177.794l1.392,3.563l9.905-3.873l0.586,1.5l-9.905,3.872l1.39,3.555l-1.181,0.462l-3.369-8.618
                    L30.539,177.794z"/>
            </g>
            <g display="inline">
                <path fill="#55575E" d="M39.532,170.83l0.487,1.543l-11.348,3.588l-0.489-1.544L39.532,170.83z"/>
            </g>
            <g display="inline">
                <path fill="#55575E" d="M31.797,160.561c1.416-0.335,2.695-0.175,3.837,0.481c1.142,0.657,1.878,1.686,2.211,3.085
                    c0.321,1.352,0.115,2.561-0.618,3.629c-0.734,1.067-1.807,1.769-3.223,2.104l-2.06,0.489c-1.411,0.335-2.685,0.191-3.824-0.432
                    c-1.139-0.623-1.869-1.611-2.19-2.963c-0.333-1.399-0.135-2.65,0.593-3.749c0.729-1.101,1.8-1.818,3.216-2.154L31.797,160.561z
                     M30.094,162.621c-1.061,0.252-1.861,0.745-2.405,1.478s-0.699,1.585-0.471,2.549c0.217,0.912,0.729,1.56,1.537,1.941
                    c0.808,0.383,1.741,0.448,2.802,0.196l2.076-0.491c1.071-0.256,1.881-0.734,2.432-1.44c0.549-0.704,0.716-1.512,0.499-2.424
                    c-0.23-0.971-0.752-1.66-1.563-2.07c-0.811-0.41-1.753-0.487-2.831-0.23L30.094,162.621z"/>
            </g>
            <g display="inline">
                <path fill="#55575E" d="M35.102,148.441l0.203,1.599l-8.411,6.841l0.023,0.047l9.115-1.154l0.203,1.597l-11.808,1.495
                    l-0.202-1.597l8.395-6.84l-0.022-0.046l-9.099,1.152l-0.203-1.597L35.102,148.441z"/>
            </g>
        </g>
    </g>
</g>
</svg>
